# xmcd
#
# Track frame offsets:
#	150
#	14661
#	27529
#	38667
#	53327
#	66655
#	78887
#	91545
#	104995
#	119587
#	133189
#	146873
#	160780
#	174085
#	184972
#	197829
#	210388
#	225026
#	238718
#	254106
#	269130
#	282392
#	296159
#
# Disc length: 4141 seconds
# Revision: 0
# Processed by: cddbd v1.5.2PL0 Copyright (c) Steve Scherf et al.
# Submitted via: dBpowerAMP V12.0
#
DISCID=5f102b17
DTITLE=Various Artist - Marijuana Madness, Vol. 2: The Best of Vintage Drug Songs 1924-1950
DYEAR=1931
DGENRE=Blues
TTITLE0=Calloway - Minnie the Moocher
TTITLE1=Baron Lee  Blue Rhythm Band - Reefer Man
TTITLE2=Webb  Fitzgerald - When I Get Low, I Get High
TTITLE3=Lunceford - My Blue Heaven
TTITLE4=WallerF - Viper's Drag
TTITLE5=Wilson Swain Champ Jack Dupree - Junker's Blues
TTITLE6=NewtonF Uptown Serenaders - Henderson
TTITLE7=PrimaL - My Chinatown
TTITLE8=ReinhardtDj  Hot Club France - Viper's Dream
TTITLE9=Lead Belly - Take a Whiff on Me
TTITLE10=Gillum Jazz Boys - Reefer Head Woman
TTITLE11=Dick Justice - Cocaine
TTITLE12=Richard Jones Jazz Wizards - Blue Reefer Blues
TTITLE13=Bob Howard - If You're a Viper (The Reefer Song)
TTITLE14=Slade Nickerson  Ramey Memphis Jug Band - Cocaine Habit Blues
TTITLE15=McKinney's Cotton Pickers - Selling That Stuff
TTITLE16=Luke Jordan - Cocaine Blues
TTITLE17=Freddy Taylor Swing Men Harlem - Blue Drag
TTITLE18=Willie Bryant Orch  - A Viper's Moan
TTITLE19=Harlem Hamfats - Weed Smoker's Dream (Why Don't You Do Now)
TTITLE20=Mezz Mezzrow Orch - Sendin' the Vipers
TTITLE21=Lucille Bogan - Pot Hound Blues
TTITLE22=Henderson Scott Meyers - Pipe Dream Blues
EXTD=
EXTT0=
EXTT1=
EXTT2=
EXTT3=
EXTT4=
EXTT5=
EXTT6=
EXTT7=
EXTT8=
EXTT9=
EXTT10=
EXTT11=
EXTT12=
EXTT13=
EXTT14=
EXTT15=
EXTT16=
EXTT17=
EXTT18=
EXTT19=
EXTT20=
EXTT21=
EXTT22=
PLAYORDER=
